<svg aria-hidden="true" data-fa-processed="" data-prefix="fas" data-icon="video" role="img" xmlns="http://www.w3.org/2000/svg" viewBox="0 0 576 576" class="svg-inline--fa fa-video fa-w-18 fa-9x">
    <g transform="translate(0, 32)">
        <path fill="#ce4414" d="M528 64h-12.118a48 48 0 0 0-33.941 14.059L384 176v-64c0-26.51-21.49-48-48-48H48C21.49 64 0 85.49 0 112v288c0 26.51 21.49 48 48 48h288c26.51 0 48-21.49 48-48v-64l97.941 97.941A48 48 0 0 0 515.882 448H528c26.51 0 48-21.49 48-48V112c0-26.51-21.49-48-48-48z" class=""></path>
    </g>
    <g transform="translate(64, 156) scale(0.5)">
        <path fill="#ffffff" d="M496 128v16a8 8 0 0 1-8 8h-24v12c0 6.627-5.373 12-12 12H60c-6.627 0-12-5.373-12-12v-12H24a8 8 0 0 1-8-8v-16a8 8 0 0 1 4.941-7.392l232-88a7.996 7.996 0 0 1 6.118 0l232 88A8 8 0 0 1 496 128zm-24 304H40c-13.255 0-24 10.745-24 24v16a8 8 0 0 0 8 8h464a8 8 0 0 0 8-8v-16c0-13.255-10.745-24-24-24zM96 192v192H60c-6.627 0-12 5.373-12 12v20h416v-20c0-6.627-5.373-12-12-12h-36V192h-64v192h-64V192h-64v192h-64V192H96z" class=""></path>
    </g>
</svg>
